<svg xmlns="http://www.w3.org/2000/svg" xmlns:xlink="http://www.w3.org/1999/xlink">
<defs>
<symbol viewBox="0 0 24 24" id="lineicons:astro"><path fill="currentColor" d="M9.24 19.035c-.901-.826-1.164-2.561-.789-3.819c.65.793 1.552 1.044 2.486 1.186c1.44.218 2.856.137 4.195-.524c.153-.076.295-.177.462-.278c.126.365.159.734.115 1.11c-.107.915-.56 1.622-1.283 2.158c-.289.215-.594.406-.892.608c-.916.622-1.164 1.35-.82 2.41l.034.114a2.4 2.4 0 0 1-1.07-.918a2.6 2.6 0 0 1-.412-1.401c-.003-.248-.003-.497-.036-.74c-.081-.595-.36-.86-.883-.876a1.034 1.034 0 0 0-1.075.843q-.013.058-.033.126M4.1 15.007s2.666-1.303 5.34-1.303l2.016-6.26c.075-.304.296-.51.544-.51c.25 0 .47.206.545.51l2.016 6.26c3.167 0 5.34 1.303 5.34 1.303L15.363 2.602c-.13-.366-.35-.602-.645-.602H9.283c-.296 0-.506.236-.645.602c-.01.024-4.538 12.405-4.538 12.405"></path></symbol>

<symbol viewBox="0 0 64 64" id="lineicons:bootstrap"><path fill="currentColor" d="M41.4 39.7c0 5.9-5.5 5.8-6 5.8H24.1V34.2h11.2c6-.2 6.1 4.3 6.1 5.5m-6.9-10.2c.1 0 5.3.1 5.3-5.1c0-2.1-.4-4.9-5.3-4.9H24.1v10zm28.4-18.1v41.3c0 5.6-4.6 10.3-10.4 10.3h-41C5.7 63 1.1 58.4 1.1 52.6V11.4C1.1 5.6 5.7 1 11.5 1h41.3c5.5 0 10.1 4.6 10.1 10.4m-15.2 29c0-3-.8-8-6.7-9.3V31c3.2-1.4 5.1-3.9 5.1-7.6c0-1 .3-9-10.7-9H17.9v36c17.7 0 19.4.1 22.6-.7c1.9-.6 7.2-2.4 7.2-9.3"></path></symbol>

<symbol viewBox="0 0 24 24" id="tdesign:css3-filled"><path fill="currentColor" d="m22.059 1l-1.098 19.208l-8.96 3.36l-8.962-3.36L1.941 1zM6.267 15.463v.004l.115 1.994L12 19.568l5.618-2.107l.405-7.084h-7.09l7.29-3.49L18.33 5H5.482l.264 2.012L12.001 7h1.353l-7.369 3.528l.106 1.849h9.814l-.21 3.67L12 17.431l-3.696-1.386l-.04-.69l-.061-1.283h-2.01z"></path></symbol>

<symbol viewBox="0 0 16 16" id="bi:discord"><path fill="currentColor" d="M13.545 2.907a13.2 13.2 0 0 0-3.257-1.011a.05.05 0 0 0-.052.025c-.141.25-.297.577-.406.833a12.2 12.2 0 0 0-3.658 0a8 8 0 0 0-.412-.833a.05.05 0 0 0-.052-.025c-1.125.194-2.22.534-3.257 1.011a.04.04 0 0 0-.021.018C.356 6.024-.213 9.047.066 12.032q.003.022.021.037a13.3 13.3 0 0 0 3.995 2.02a.05.05 0 0 0 .056-.019q.463-.63.818-1.329a.05.05 0 0 0-.01-.059l-.018-.011a9 9 0 0 1-1.248-.595a.05.05 0 0 1-.02-.066l.015-.019q.127-.095.248-.195a.05.05 0 0 1 .051-.007c2.619 1.196 5.454 1.196 8.041 0a.05.05 0 0 1 .053.007q.121.1.248.195a.05.05 0 0 1-.004.085a8 8 0 0 1-1.249.594a.05.05 0 0 0-.03.03a.05.05 0 0 0 .003.041c.24.465.515.909.817 1.329a.05.05 0 0 0 .056.019a13.2 13.2 0 0 0 4.001-2.02a.05.05 0 0 0 .021-.037c.334-3.451-.559-6.449-2.366-9.106a.03.03 0 0 0-.02-.019m-8.198 7.307c-.789 0-1.438-.724-1.438-1.612s.637-1.613 1.438-1.613c.807 0 1.45.73 1.438 1.613c0 .888-.637 1.612-1.438 1.612m5.316 0c-.788 0-1.438-.724-1.438-1.612s.637-1.613 1.438-1.613c.807 0 1.451.73 1.438 1.613c0 .888-.631 1.612-1.438 1.612"></path></symbol>

<symbol viewBox="0 0 128 128" id="devicon:express" fill="currentColor"><path d="M126.67 98.44c-4.56 1.16-7.38.05-9.91-3.75c-5.68-8.51-11.95-16.63-18-24.9c-.78-1.07-1.59-2.12-2.6-3.45C89 76 81.85 85.2 75.14 94.77c-2.4 3.42-4.92 4.91-9.4 3.7l26.92-36.13L67.6 29.71c4.31-.84 7.29-.41 9.93 3.45c5.83 8.52 12.26 16.63 18.67 25.21c6.45-8.55 12.8-16.67 18.8-25.11c2.41-3.42 5-4.72 9.33-3.46c-3.28 4.35-6.49 8.63-9.72 12.88c-4.36 5.73-8.64 11.53-13.16 17.14c-1.61 2-1.35 3.3.09 5.19C109.9 76 118.16 87.1 126.67 98.44M1.33 61.74c.72-3.61 1.2-7.29 2.2-10.83c6-21.43 30.6-30.34 47.5-17.06C60.93 41.64 63.39 52.62 62.9 65H7.1c-.84 22.21 15.15 35.62 35.53 28.78c7.15-2.4 11.36-8 13.47-15c1.07-3.51 2.84-4.06 6.14-3.06c-1.69 8.76-5.52 16.08-13.52 20.66c-12 6.86-29.13 4.64-38.14-4.89C5.26 85.89 3 78.92 2 71.39c-.15-1.2-.46-2.38-.7-3.57q.03-3.04.03-6.08m5.87-1.49h50.43c-.33-16.06-10.33-27.47-24-27.57c-15-.12-25.78 11.02-26.43 27.57"></path></symbol>

<symbol viewBox="0 0 24 24" id="gg:figma"><path fill="currentColor" d="M8.5 2a3 3 0 0 0 0 6h7a3 3 0 1 0 0-6zm7 7a3 3 0 1 0 0 6a3 3 0 0 0 0-6m-10 3a3 3 0 0 1 3-3h3v6h-3a3 3 0 0 1-3-3m3 4a3 3 0 1 0 3 3v-3z"></path></symbol>

<symbol viewBox="0 0 24 24" id="simple-icons:framer"><path fill="currentColor" d="M4 0h16v8h-8zm0 8h8l8 8H4zm0 8h8v8z"></path></symbol>

<symbol viewBox="0 0 16 16" id="bi:git"><path fill="currentColor" d="M15.698 7.287L8.712.302a1.03 1.03 0 0 0-1.457 0l-1.45 1.45l1.84 1.84a1.223 1.223 0 0 1 1.55 1.56l1.773 1.774a1.224 1.224 0 0 1 1.267 2.025a1.226 1.226 0 0 1-2.002-1.334L8.58 5.963v4.353a1.226 1.226 0 1 1-1.008-.036V5.887a1.226 1.226 0 0 1-.666-1.608L5.093 2.465l-4.79 4.79a1.03 1.03 0 0 0 0 1.457l6.986 6.986a1.03 1.03 0 0 0 1.457 0l6.953-6.953a1.03 1.03 0 0 0 0-1.457"></path></symbol>

<symbol viewBox="0 0 1536 1504" id="fa:github"><path fill="currentColor" d="M768 0q209 0 385.5 103T1433 382.5T1536 768q0 251-146.5 451.5T1011 1497q-27 5-40-7t-13-30q0-3 .5-76.5t.5-134.5q0-97-52-142q57-6 102.5-18t94-39t81-66.5t53-105T1258 728q0-119-79-206q37-91-8-204q-28-9-81 11t-92 44l-38 24q-93-26-192-26t-192 26q-16-11-42.5-27T450 331.5T365 318q-45 113-8 204q-79 87-79 206q0 85 20.5 150T351 983t80.5 67t94 39t102.5 18q-39 36-49 103q-21 10-45 15t-57 5t-65.5-21.5T356 1146q-19-32-48.5-52t-49.5-24l-20-3q-21 0-29 4.5t-5 11.5t9 14t13 12l7 5q22 10 43.5 38t31.5 51l10 23q13 38 44 61.5t67 30t69.5 7t55.5-3.5l23-4q0 38 .5 88.5t.5 54.5q0 18-13 30t-40 7q-232-77-378.5-277.5T0 768q0-209 103-385.5T382.5 103T768 0M291 1103q3-7-7-12q-10-3-13 2q-3 7 7 12q9 6 13-2m31 34q7-5-2-16q-10-9-16-3q-7 5 2 16q10 10 16 3m30 45q9-7 0-19q-8-13-17-6q-9 5 0 18t17 7m42 42q8-8-4-19q-12-12-20-3q-9 8 4 19q12 12 20 3m57 25q3-11-13-16q-15-4-19 7t13 15q15 6 19-6m63 5q0-13-17-11q-16 0-16 11q0 13 17 11q16 0 16-11m58-10q-2-11-18-9q-16 3-14 15t18 8t14-14"></path></symbol>

<symbol viewBox="0 0 128 128" id="devicon-plain:html5"><path fill="currentColor" d="m9.032 2l10.005 112.093l44.896 12.401l45.02-12.387L118.968 2zm89.126 26.539l-.627 7.172L97.255 39H44.59l1.257 14h50.156l-.336 3.471l-3.233 36.119l-.238 2.27L64 102.609v.002l-.034.018l-28.177-7.423L33.876 74h13.815l.979 10.919L63.957 89H64v-.546l15.355-3.875L80.959 67H33.261l-3.383-38.117L29.549 25h68.939z"></path></symbol>

<symbol viewBox="0 0 16 16" id="bi:javascript"><path fill="currentColor" fill-rule="evenodd" d="M14 0a2 2 0 0 1 2 2v12a2 2 0 0 1-2 2H2a2 2 0 0 1-2-2V2a2 2 0 0 1 2-2zM9.053 7.596v3.127l-.007 1.752q0 .498-.186.752t-.556.263q-.342 0-.528-.234q-.185-.234-.185-.684v-.175H6.37v.185q0 .665.253 1.113q.255.45.703.674q.44.225 1.016.225q.88 0 1.406-.498q.527-.498.527-1.485l.007-1.752V7.596zm3.808-.108q-.585 0-1.006.244a1.67 1.67 0 0 0-.634.674a2.1 2.1 0 0 0-.225.996q0 .753.293 1.182q.303.42.967.732l.469.215q.438.186.625.43q.185.244.185.635q0 .478-.166.703q-.156.224-.527.224q-.361.001-.547-.244q-.186-.243-.205-.752h-1.162q.02.996.498 1.524q.479.527 1.386.527q.909 0 1.417-.518q.507-.517.507-1.484q0-.81-.332-1.289t-1.045-.79l-.449-.196q-.39-.166-.556-.381q-.166-.214-.166-.576q0-.4.165-.596q.177-.195.508-.195q.361 0 .508.234q.156.234.176.703h1.123q-.03-.976-.498-1.484q-.47-.518-1.309-.518"></path></symbol>

<symbol viewBox="0 0 24 24" id="simple-icons:jira"><path fill="currentColor" d="M11.571 11.513H0a5.22 5.22 0 0 0 5.232 5.215h2.13v2.057A5.215 5.215 0 0 0 12.575 24V12.518a1.005 1.005 0 0 0-1.005-1.005zm5.723-5.756H5.736a5.215 5.215 0 0 0 5.215 5.214h2.129v2.058a5.22 5.22 0 0 0 5.215 5.214V6.758a1 1 0 0 0-1.001-1.001M23.013 0H11.455a5.215 5.215 0 0 0 5.215 5.215h2.129v2.057A5.215 5.215 0 0 0 24 12.483V1.005A1 1 0 0 0 23.013 0"></path></symbol>

<symbol viewBox="0 0 128 128" id="devicon-plain:jquery"><path fill="currentColor" d="M65.283 106.928c-.828-.187-1.633-.446-2.441-.685l-.609-.185a73 73 0 0 1-2.352-.765l-.323-.117a71 71 0 0 1-2.074-.769l-.582-.229q-1.13-.445-2.238-.931l-.447-.198a93 93 0 0 1-1.889-.879l-.546-.262c-.491-.239-.977-.493-1.461-.743c-.324-.171-.654-.332-.975-.51a57 57 0 0 1-1.751-.982l-.591-.33a80 80 0 0 1-2.28-1.397l-.615-.41a58 58 0 0 1-1.623-1.079l-.523-.367a93 93 0 0 1-1.534-1.109l-.679-.514a67 67 0 0 1-1.384-1.082l-.617-.495a85 85 0 0 1-1.724-1.453l-.188-.159a81 81 0 0 1-1.812-1.647l-.51-.491q-.662-.628-1.302-1.277l-.51-.509a73 73 0 0 1-1.599-1.69l-.078-.084a66 66 0 0 1-1.621-1.844l-.424-.504a67 67 0 0 1-1.167-1.442l-.427-.532a78 78 0 0 1-1.347-1.794C12.89 62.89 8.524 40.032 18.236 21.26L9.625 32.181C-1.404 48.032-.031 68.657 8.394 85.501c.2.404.411.801.617 1.198l.395.759l.245.437l.439.786q.393.691.805 1.379l.458.756q.456.735.934 1.46l.398.614c.438.655.888 1.309 1.352 1.951l.039.05l.228.308c.4.553.814 1.099 1.232 1.639l.463.59q.559.703 1.139 1.399l.435.52a75 75 0 0 0 1.586 1.812l.032.033l.062.068a78 78 0 0 0 1.612 1.699l.517.521q.635.638 1.287 1.262l.526.5q.869.82 1.764 1.607l.028.022l.307.262q.79.686 1.603 1.353l.664.529q.662.531 1.336 1.044l.714.543q.743.548 1.499 1.075l.546.387l.15.107c.478.329.967.646 1.456.963l.63.42c.749.474 1.51.943 2.278 1.396l.63.355a75 75 0 0 0 1.711.959c.312.168.632.327.946.488c.407.213.811.429 1.225.636l.283.137l.501.242q.961.46 1.94.897l.41.184a67 67 0 0 0 2.263.941l.551.217c.704.271 1.418.539 2.135.791l.268.093c.786.275 1.581.53 2.381.779l.575.172c.814.245 1.618.538 2.458.693c53.339 9.727 68.833-32.053 68.833-32.053c-13.014 16.954-36.112 21.426-57.997 16.447M46.069 63.697c1.195 1.713 2.52 3.751 4.105 5.127a48 48 0 0 0 1.79 1.858l.472.465a53 53 0 0 0 1.828 1.698l.074.064l.018.018a55 55 0 0 0 2.135 1.767l.484.378a54 54 0 0 0 2.233 1.631l.065.049c.336.232.679.448 1.02.672l.482.319q.816.525 1.656 1.015l.234.136q.726.418 1.463.818l.521.271c.339.177.678.358 1.024.53l.155.07c.702.346 1.411.68 2.136.995l.472.194a50 50 0 0 0 1.75.71l.75.275c.533.198 1.068.378 1.608.559l.727.233c.767.238 1.525.539 2.324.672c41.183 6.823 50.69-24.886 50.69-24.886c-8.57 12.343-25.168 18.233-42.879 13.635a50 50 0 0 1-2.333-.674l-.7-.227a46 46 0 0 1-1.632-.562l-.736-.274a57 57 0 0 1-1.756-.708l-.473-.2a48 48 0 0 1-2.148-.999c-.364-.177-.721-.364-1.078-.548l-.622-.32a45 45 0 0 1-1.363-.77l-.326-.185a48 48 0 0 1-1.65-1.008l-.498-.332a66 66 0 0 1-1.069-.707a58 58 0 0 1-2.226-1.628l-.501-.395c-7.752-6.12-13.897-14.486-16.819-23.971c-3.062-9.836-2.401-20.878 2.903-29.84l-6.517 9.2c-7.977 11.478-7.543 26.844-1.321 38.983a50 50 0 0 0 3.528 5.892m43.407-14.199c.339.125.678.237 1.022.354l.451.143c.484.152.966.329 1.467.424c22.739 4.394 28.908-11.669 30.549-14.034c-5.403 7.779-14.482 9.646-25.623 6.942c-.88-.213-1.848-.531-2.696-.832a33 33 0 0 1-3.201-1.329a33 33 0 0 1-5.612-3.424c-9.969-7.565-16.162-21.994-9.657-33.745l-3.52 4.851c-4.702 6.92-5.164 15.514-1.901 23.156c3.441 8.112 10.492 14.475 18.721 17.494"></path></symbol>

<symbol viewBox="0 0 128 128" id="devicon-plain:materialui"><path fill="currentColor" d="M.2 68.6V13.4L48 41v18.4L16.1 41v36.8zM48 41l47.9-27.6v55.3L64 87l-16-9.2l32-18.4V41L48 59.4z"></path><path fill="currentColor" d="M48 77.8v18.4l32 18.4V96.2zm32 36.8L127.8 87V50.2l-16 9.2v18.4L80 96.2zM111.9 41V22.6l16-9.2v18.4z"></path></symbol>

<symbol viewBox="0 0 24 24" id="simple-icons:mongodb"><path fill="currentColor" d="M17.193 9.555c-1.264-5.58-4.252-7.414-4.573-8.115c-.28-.394-.53-.954-.735-1.44c-.036.495-.055.685-.523 1.184c-.723.566-4.438 3.682-4.74 10.02c-.282 5.912 4.27 9.435 4.888 9.884l.07.05A74 74 0 0 1 11.91 24h.481a29 29 0 0 1 .51-3.07c.417-.296.604-.463.85-.693a11.34 11.34 0 0 0 3.639-8.464c.01-.814-.103-1.662-.197-2.218m-5.336 8.195s0-8.291.275-8.29c.213 0 .49 10.695.49 10.695c-.381-.045-.765-1.76-.765-2.405"></path></symbol>

<symbol viewBox="0 0 15 15" id="teenyicons:nodejs-solid"><path fill="currentColor" fill-rule="evenodd" d="M14 4.213L7.5.42L1 4.213v6.574l1.006.587l2.057-.832A1.5 1.5 0 0 0 5 9.152V4h1v5.152a2.5 2.5 0 0 1-1.562 2.317l-1.34.542L7.5 14.58l6.5-3.792zM7 6a2 2 0 0 1 2-2h1.167C11.179 4 12 4.82 12 5.833V6h-1v-.167A.833.833 0 0 0 10.167 5H9a1 1 0 0 0 0 2h1a2 2 0 1 1 0 4H9a2 2 0 0 1-2-2h1a1 1 0 0 0 1 1h1a1 1 0 1 0 0-2H9a2 2 0 0 1-2-2" clip-rule="evenodd"></path></symbol>

<symbol viewBox="0 0 1025 1024" id="whh:pgsql"><path fill="currentColor" d="M864.95 544q13-27 22.5-113.5t9.5-142.5q0-73-49.5-147.5T736.95 32q12-4 33-13.5t35-14t28-4.5q25 0 57 12.5t62.5 35t51.5 61t21 83.5q0 51-19 125t-58 143t-83 84m-64-288q9 0 24 9q8 30 8 55q0 78-15 171q-16-32-32.5-91t-16.5-80q0-26 9.5-45t22.5-19m-96 96q0 37 29 96.5t70 111.5q-13 54-32 105q90 69 193 69q-46 34-100 34q-41 0-96-30v158q0 48-40 88t-88 40q-37 0-50.5-17t-13.5-47V768q0-23-21-51q-33 26-79.5 38.5t-91.5 12.5q-9 0-17-1.5t-13.5-3.5t-11-6t-8-6t-8-8t-6.5-7q33 0 83.5-21.5t88.5-53.5q-23-14-44-21q26-77 45-151.5t19-104.5q0-92-27-142t-69-50q-45 0-83 20q20-107 71.5-159.5T544.95 0q67 0 137.5 56.5T794.95 193q-90 5-90 159m-320-96q64 0 64 96q0 43-9 86t-28 105.5t-27 96.5q-64-119-64-256q0-50 3-93q29-35 61-35m-73 368q-80 80-119 80q-26 0-59.5-44t-63-111t-49.5-156t-20-169q0-35 12.5-72.5t35-72t60.5-57t84-22.5q60 0 147 34q-40 40-61.5 121.5T256.95 352q0 182 55 272"></path></symbol>

<symbol viewBox="0 0 32 32" id="cib:postman"><path fill="currentColor" d="M18.036.131C9.271-.989 1.255 5.198.131 13.964c-1.12 8.765 5.067 16.781 13.833 17.905c8.765 1.12 16.781-5.067 17.9-13.833C32.989 9.271 26.803 1.255 18.036.131m3.292 9.984c-.297 0-.579.12-.787.333l-5.937 5.932l-.411-.407l-.855-.859c5.849-5.833 6.907-5.891 7.989-5zm-6.479 6.478l5.916-5.921a.83.83 0 0 1 1.204.005a.825.825 0 0 1-.073 1.197l-6.265 5.5zm.438.928l-1.469.317a.085.085 0 0 1-.088-.047a.08.08 0 0 1 .016-.095l.859-.859zm-3.74-.614l1.568-1.563l1.172 1.172l-2.641.567a.1.1 0 0 1-.115-.052a.1.1 0 0 1 .016-.124m-4.859 8.077c-.057-.005-.1-.057-.095-.109a.12.12 0 0 1 .032-.063h.005l1.26-1.26l1.631 1.631zm3.233-1.677a.31.31 0 0 0-.156.344l.271 1.152c.043.167-.161.28-.281.156H9.75l-1.635-1.636l5.016-5.011l2.427-.525l1.161 1.167c-1.672 1.468-3.959 2.932-6.797 4.353zm7.038-4.567l-1.12-1.12l6.265-5.5q.086-.079.156-.167c-.192 1.792-2.703 4.323-5.301 6.787m4.88-8.615h-.005c-2.183-2.193.901-5.563 3.276-3.584l-2.145 2.152a.16.16 0 0 0 0 .228l1.661 1.663a2.42 2.42 0 0 1-2.787-.459m3.432 0a2 2 0 0 1-.359.291l-1.609-1.609l2.041-2.047a2.43 2.43 0 0 1-.073 3.365m-.131-2.057a.19.19 0 0 0-.072.208a.55.55 0 0 1-.068.599a.185.185 0 0 0 .031.265a.2.2 0 0 0 .109.037c.057 0 .111-.021.141-.063a.93.93 0 0 0 .12-1.005a.185.185 0 0 0-.261-.041"></path></symbol>

<symbol viewBox="0 0 24 24" id="akar-icons:python-fill"><g fill="none"><g fill="currentColor" clip-path="url(#IconifyId1991d2ca88e8460a334335237)"><path d="M11.914 0C5.82 0 6.2 2.656 6.2 2.656l.007 2.752h5.814v.826H3.9S0 5.789 0 11.969s3.403 5.96 3.403 5.96h2.03v-2.867s-.109-3.42 3.35-3.42h5.766s3.24.052 3.24-3.148V3.202S18.28 0 11.913 0M8.708 1.85c.578 0 1.046.47 1.046 1.052c0 .581-.468 1.051-1.046 1.051s-1.046-.47-1.046-1.051c0-.582.467-1.052 1.046-1.052"></path><path d="M12.087 24c6.092 0 5.712-2.656 5.712-2.656l-.007-2.752h-5.814v-.826h8.123s3.9.445 3.9-5.735s-3.404-5.96-3.404-5.96h-2.03v2.867s.109 3.42-3.35 3.42H9.452s-3.24-.052-3.24 3.148v5.292S5.72 24 12.087 24m3.206-1.85c-.579 0-1.046-.47-1.046-1.052c0-.581.467-1.051 1.046-1.051c.578 0 1.046.47 1.046 1.051c0 .582-.468 1.052-1.046 1.052"></path></g><defs><clipPath id="IconifyId1991d2ca88e8460a334335237"><path fill="#fff" d="M0 0h24v24H0z"></path></clipPath></defs></g></symbol>

<symbol viewBox="0 0 27 24" id="fontisto:react"><path fill="currentColor" d="M15.902 11.974a2.41 2.41 0 1 1-4.82 0a2.41 2.41 0 0 1 4.82 0"></path><path fill="currentColor" d="M13.491 17.494a27.3 27.3 0 0 1-8.749-1.206l.193.051a10.9 10.9 0 0 1-3.541-1.903l.021.016a3.41 3.41 0 0 1-1.41-2.467l-.001-.013c0-1.594 1.747-3.154 4.681-4.172c2.512-.827 5.403-1.304 8.405-1.304l.417.003h-.021a27.5 27.5 0 0 1 8.885 1.334l-.195-.055a11 11 0 0 1 3.433 1.814l-.024-.018a3.27 3.27 0 0 1 1.386 2.387l.001.013c0 1.656-1.954 3.332-5.103 4.374c-2.363.729-5.08 1.149-7.895 1.149q-.255 0-.508-.005h.025zm0-9.84c-.106-.002-.232-.002-.358-.002c-2.881 0-5.656.452-8.259 1.289l.191-.053c-2.698.941-3.908 2.228-3.908 3.087c0 .893 1.301 2.3 4.153 3.274c2.249.697 4.834 1.099 7.513 1.099q.352 0 .702-.009l-.034.001a26.5 26.5 0 0 0 8.205-1.138l-.187.049c2.96-.984 4.32-2.391 4.32-3.28a2.25 2.25 0 0 0-.966-1.515l-.008-.005a9.8 9.8 0 0 0-2.97-1.574l-.07-.02c-2.368-.766-5.093-1.208-7.92-1.208q-.213 0-.424.003h.021z"></path><path fill="currentColor" d="m8.023 23.986l-.053.001c-.453 0-.878-.119-1.245-.327l.013.007c-1.378-.8-1.858-3.092-1.28-6.141c.697-3.128 1.827-5.894 3.344-8.4l-.069.124a27.9 27.9 0 0 1 5.425-6.872l.02-.018A11 11 0 0 1 17.365.332l.073-.027c.407-.196.885-.31 1.39-.31c.501 0 .976.113 1.4.314l-.02-.008c1.435.826 1.911 3.36 1.238 6.606c-.72 2.967-1.818 5.58-3.262 7.959l.07-.123c-1.452 2.63-3.209 4.882-5.266 6.819l-.014.013a10.9 10.9 0 0 1-3.321 2.082l-.074.026c-.46.181-.992.292-1.549.305h-.006zM9.228 9.539l.499.288c-1.381 2.28-2.465 4.926-3.106 7.74l-.034.18c-.533 2.809-.019 4.498.72 4.926c.191.102.417.161.657.161l.061-.001h-.003c.955 0 2.458-.605 4.196-2.122a26.4 26.4 0 0 0 4.972-6.404l.068-.135a26 26 0 0 0 3.025-7.307l.038-.182c.629-3.058.086-4.93-.686-5.378a2.25 2.25 0 0 0-1.814.092l.013-.006a9.9 9.9 0 0 0-2.907 1.846l.007-.006a26.6 26.6 0 0 0-5.136 6.468l-.069.132z"></path><path fill="currentColor" d="M18.96 24c-1.306 0-2.96-.787-4.69-2.276a27.8 27.8 0 0 1-5.464-6.834l-.072-.137c-1.43-2.349-2.551-5.075-3.215-7.975l-.036-.185a10.8 10.8 0 0 1-.255-2.357q0-.79.108-1.551l-.007.058A3.27 3.27 0 0 1 6.701.344l.01-.007c1.43-.83 3.865.024 6.342 2.228a27.9 27.9 0 0 1 5.118 6.54l.072.138a26.8 26.8 0 0 1 3.242 7.798l.038.186c.163.709.257 1.524.257 2.36q0 .866-.13 1.696l.008-.062a3.42 3.42 0 0 1-1.429 2.456l-.011.007a2.44 2.44 0 0 1-1.207.316l-.054-.001h.003zm-9.228-9.823a27 27 0 0 0 5.271 6.656l.02.018c2.166 1.863 3.884 2.266 4.628 1.834c.773-.446 1.339-2.276.754-5.233c-.702-2.89-1.787-5.434-3.219-7.741l.065.112a26.8 26.8 0 0 0-4.948-6.384l-.012-.011C9.957 1.354 8.066.888 7.293 1.334a2.23 2.23 0 0 0-.825 1.593v.007a9.9 9.9 0 0 0 .162 3.499l-.013-.066c.673 2.952 1.747 5.559 3.182 7.924l-.066-.117z"></path></symbol>

<symbol viewBox="0 0 512 512" id="file-icons:redux"><path fill="currentColor" d="M290.583 477.715c9.087-6.49 22.07-16.877 29.21-23.368c124.456 49.444 165.06-47.194 161.818-84.077c-3.59-40.84-54.299-157.39-226.728-157.393c-8.108 19.003-31.817 28.536-51.427 17.177c-24.066-13.94-24.066-48.977 0-62.916c18.695-10.83 41.111-2.668 50.188 14.581c104.685-.532 222.046 43.93 254.864 167.65c23.67 89.225-75.634 193.24-217.925 128.346m64.406-126.193c17.32-2.041 32.333-16.497 32.333-36.085c0-27.879-30.405-45.398-54.598-31.458c-21.223 12.228-23.823 40.69-7.81 56.904C267.471 447.981 139.18 489.856 71.48 449.208c-37.49-22.51-76.15-103.092 13.982-177.262c-2.597-8.438-6.492-22.719-8.439-33.105c-162.047 122.116-45.399 316.424 137.312 240.755c49.398-20.458 102.958-56.213 140.653-128.074m-197.604 41.46c24.227 13.94 54.675-3.58 54.675-31.458c0-23.266-21.205-39.3-42.303-35.873C35.742 75.325 317.897-73.33 354.196 163.544l32.456 9.737C363.052-17.261 220.585.174 174.945 38.765C140.74 67.688 49.3 169.46 143.772 343.792c-9.103 16.39-4.566 38.73 13.613 49.19"></path></symbol>

<symbol viewBox="0 0 16 16" id="bi:slack"><path fill="currentColor" d="M3.362 10.11c0 .926-.756 1.681-1.681 1.681S0 11.036 0 10.111S.756 8.43 1.68 8.43h1.682zm.846 0c0-.924.756-1.68 1.681-1.68s1.681.756 1.681 1.68v4.21c0 .924-.756 1.68-1.68 1.68a1.685 1.685 0 0 1-1.682-1.68zM5.89 3.362c-.926 0-1.682-.756-1.682-1.681S4.964 0 5.89 0s1.68.756 1.68 1.68v1.682zm0 .846c.924 0 1.68.756 1.68 1.681S6.814 7.57 5.89 7.57H1.68C.757 7.57 0 6.814 0 5.89c0-.926.756-1.682 1.68-1.682zm6.749 1.682c0-.926.755-1.682 1.68-1.682S16 4.964 16 5.889s-.756 1.681-1.68 1.681h-1.681zm-.848 0c0 .924-.755 1.68-1.68 1.68A1.685 1.685 0 0 1 8.43 5.89V1.68C8.43.757 9.186 0 10.11 0c.926 0 1.681.756 1.681 1.68zm-1.681 6.748c.926 0 1.682.756 1.682 1.681S11.036 16 10.11 16s-1.681-.756-1.681-1.68v-1.682h1.68zm0-.847c-.924 0-1.68-.755-1.68-1.68s.756-1.681 1.68-1.681h4.21c.924 0 1.68.756 1.68 1.68c0 .926-.756 1.681-1.68 1.681z"></path></symbol>

<symbol viewBox="0 0 15 15" id="teenyicons:tailwind-solid"><path fill="currentColor" d="M7.5 2.5c-1.026 0-1.908.277-2.6.87c-.688.59-1.137 1.447-1.387 2.516a.5.5 0 0 0 .897.4c.316-.452.632-.723.936-.863c.294-.135.611-.162.975-.065c.366.098.65.386 1.095.87l.015.016c.336.365.745.81 1.305 1.156c.582.359 1.305.6 2.264.6c1.026 0 1.908-.277 2.6-.87c.688-.59 1.138-1.447 1.387-2.516a.5.5 0 0 0-.897-.4c-.316.452-.632.723-.936.863c-.294.135-.611.162-.975.065c-.366-.098-.65-.386-1.095-.87l-.015-.016c-.336-.365-.745-.81-1.305-1.156c-.582-.359-1.305-.6-2.264-.6M4 7c-1.026 0-1.908.277-2.6.87C.712 8.46.263 9.317.013 10.386a.5.5 0 0 0 .897.4c.316-.452.632-.723.936-.863c.294-.135.611-.162.975-.065c.366.098.65.386 1.095.87l.015.016c.336.365.745.81 1.305 1.156c.582.359 1.305.6 2.264.6c1.026 0 1.908-.277 2.6-.87c.688-.59 1.138-1.447 1.387-2.516a.5.5 0 0 0-.897-.4c-.316.452-.632.723-.936.863c-.294.135-.611.162-.975.065c-.366-.098-.65-.386-1.095-.87l-.015-.016c-.335-.365-.745-.81-1.305-1.156C5.682 7.24 4.959 7 4 7"></path></symbol>

<symbol viewBox="0 0 24 24" id="simple-icons:trello"><path fill="currentColor" d="M21.147 0H2.853A2.86 2.86 0 0 0 0 2.853v18.294A2.86 2.86 0 0 0 2.853 24h18.294A2.86 2.86 0 0 0 24 21.147V2.853A2.86 2.86 0 0 0 21.147 0M10.34 17.287a.953.953 0 0 1-.953.953h-4a.954.954 0 0 1-.954-.953V5.38a.953.953 0 0 1 .954-.953h4a.954.954 0 0 1 .953.953zm9.233-5.467a.944.944 0 0 1-.953.947h-4a.947.947 0 0 1-.953-.947V5.38a.953.953 0 0 1 .953-.953h4a.954.954 0 0 1 .953.953z"></path></symbol>

<symbol viewBox="0 0 16 16" id="bi:typescript"><path fill="currentColor" fill-rule="evenodd" d="M14 0a2 2 0 0 1 2 2v12a2 2 0 0 1-2 2H2a2 2 0 0 1-2-2V2a2 2 0 0 1 2-2zm-1.139 7.488q-.585 0-1.006.244a1.67 1.67 0 0 0-.634.674a2.1 2.1 0 0 0-.225.996q0 .753.293 1.182q.303.42.967.732l.469.215q.438.186.625.43q.185.244.185.635q0 .478-.166.703q-.156.224-.527.224q-.361.001-.547-.244q-.186-.243-.205-.752h-1.162q.02.996.498 1.524q.479.527 1.386.527q.909 0 1.417-.518q.507-.517.507-1.484q0-.81-.332-1.289t-1.045-.79l-.449-.196q-.39-.166-.556-.381q-.166-.214-.166-.576q0-.4.165-.596q.177-.195.508-.195q.361 0 .508.234q.156.234.176.703h1.123q-.03-.976-.498-1.484q-.47-.518-1.309-.518M7 7.596v1.113h1.3V14.5h1.221V8.709h1.289V7.596z"></path></symbol>

<symbol viewBox="0 0 24 24" id="simple-icons:vercel"><path fill="currentColor" d="m12 1.608l12 20.784H0Z"></path></symbol>

<symbol viewBox="0 0 256 257" id="logos:jwt-icon"><path fill="currentColor" d="M147.386 69.071L147.129 0h-38.515l.257 69.071l19.257 26.448zm-38.515 118.371v69.328h38.515v-69.328l-19.258-26.447z"></path><path fill="currentColor" d="m147.386 187.442l40.57 55.976l31.069-22.596l-40.57-55.975l-31.069-10.015zM108.871 69.071L68.044 13.095L36.975 35.691l40.57 55.976l31.326 10.014z"></path><path fill="currentColor" d="M77.545 91.667L11.811 70.355L0 106.816l65.733 21.569l31.069-10.271zm81.653 46.732l19.257 26.448l65.734 21.311L256 149.697l-65.733-21.312z"></path><path fill="currentColor" d="M190.267 128.385L256 106.816l-11.811-36.461l-65.734 21.312l-19.257 26.447zm-124.534 0L0 149.697l11.811 36.461l65.734-21.311l19.257-26.448z"></path><path fill="currentColor" d="m77.545 164.847l-40.57 55.975l31.069 22.596l40.827-55.976v-32.61zm100.91-73.18l40.57-55.976l-31.069-22.596l-40.57 55.976v32.61z"></path></symbol>

<symbol viewBox="0 0 24 24" id="cbi:oauth"><path fill="currentColor" d="M21.474 8.923a10.5 10.5 0 0 0-1.153-2.431A9.4 9.4 0 0 0 12.1 1.981q-.4 0-.827.025a10.2 10.2 0 0 0-3.258.777a12 12 0 0 0-1.93 1.1A9 9 0 0 0 4.13 5.766a10 10 0 0 0-1.378 2.406l-.125.3a8 8 0 0 0-.3.827A8.8 8.8 0 0 0 2 11.755a11.6 11.6 0 0 0 .226 2.331a9.76 9.76 0 0 0 2.055 4.286a11.5 11.5 0 0 0 3.483 2.707a8.4 8.4 0 0 0 2.745.839a10.8 10.8 0 0 0 3.12-.025A9.6 9.6 0 0 0 16.511 21a10.1 10.1 0 0 0 3.81-3.484a9.6 9.6 0 0 0 1.2-2.506A10.3 10.3 0 0 0 22 11.906a9.3 9.3 0 0 0-.526-2.983m-5.1 7.657a1.17 1.17 0 0 1-.714.614a1.7 1.7 0 0 1-.4.05a1.25 1.25 0 0 1-.727-.225a1.16 1.16 0 0 1-.451-.627l-.576-1.83H10.5l-.576 1.83a1.23 1.23 0 0 1-.451.614a1.2 1.2 0 0 1-.727.238a1.4 1.4 0 0 1-.376-.05a1.2 1.2 0 0 1-.739-.6a1.22 1.22 0 0 1-.088-.953L10.07 7.62a1.23 1.23 0 0 1 .451-.639a1.2 1.2 0 0 1 .727-.238H12.6a1.2 1.2 0 0 1 .726.238a1.2 1.2 0 0 1 .451.614l2.657 8.02a1.18 1.18 0 0 1-.061.965z"></path></symbol>

<symbol viewBox="0 0 24 24" id="simple-icons:cloudinary"><path fill="currentColor" d="M24 14.86c0 2.173-1.376 3.974-3.59 4.7l-.1.031V17.99c1.378-.58 2.187-1.727 2.187-3.13a3.684 3.684 0 0 0-3.608-3.669h-.596l-.144-.569a6.5 6.5 0 0 0-6.272-4.97a6.39 6.39 0 0 0-5.81 3.664l-.184.376l-.417.044a4.43 4.43 0 0 0-3.305 2.088a4.43 4.43 0 0 0 1.458 6.095v1.69h-.01l-.149-.068a5.94 5.94 0 0 1-3.366-4.35a5.94 5.94 0 0 1 4.8-6.894a7.88 7.88 0 0 1 6.983-4.15a8.03 8.03 0 0 1 7.59 5.589A5.21 5.21 0 0 1 24 14.86M8.682 13.538h.565a.066.066 0 0 0 .046-.111l-2.209-2.211a.066.066 0 0 0-.093 0l-2.211 2.21a.066.066 0 0 0 .048.112h.556a.066.066 0 0 1 .066.065v5.058c0 .659.534 1.193 1.193 1.193h2.604a.066.066 0 0 0 .046-.112l-.33-.33a1.2 1.2 0 0 1-.348-.839v-4.97a.07.07 0 0 1 .067-.065m9.77 2.546h.566a.066.066 0 0 0 .046-.113l-2.21-2.209l-.002-.001a.064.064 0 0 0-.09.001l-2.211 2.209a.066.066 0 0 0 .046.113h.556a.066.066 0 0 1 .066.066v2.51c0 .66.534 1.193 1.193 1.193h2.606a.066.066 0 0 0 .046-.11l-.33-.33a1.2 1.2 0 0 1-.348-.84V16.15a.066.066 0 0 1 .066-.066m-4.885-1.274h.565a.066.066 0 0 0 .047-.111l-2.21-2.203h-.001a.066.066 0 0 0-.093 0l-2.208 2.207a.066.066 0 0 0 .045.111h.563a.07.07 0 0 1 .066.068v3.779c0 .659.534 1.193 1.192 1.193h2.599a.066.066 0 0 0 .047-.112l-.332-.33a1.2 1.2 0 0 1-.346-.839v-3.695c0-.037.03-.067.066-.068"></path></symbol>

<symbol viewBox="0 0 24 24" id="simple-icons:mercadopago"><path fill="currentColor" d="M11.115 16.479a.93.927 0 0 1-.939-.886c-.002-.042-.006-.155-.103-.155c-.04 0-.074.023-.113.059c-.112.103-.254.206-.46.206a.816.814 0 0 1-.305-.066c-.535-.214-.542-.578-.521-.725c.006-.038.007-.08-.02-.11l-.032-.03h-.034c-.027 0-.055.012-.093.039a.788.786 0 0 1-.454.16a.7.699 0 0 1-.253-.05c-.708-.27-.65-.928-.617-1.126q.008-.062-.03-.092l-.05-.04l-.047.043a.728.726 0 0 1-.505.203a.73.728 0 0 1-.732-.725c0-.4.328-.722.732-.722c.364 0 .675.27.721.63l.026.195l.11-.165c.01-.018.307-.46.852-.46c.102 0 .21.016.316.05c.434.13.508.52.519.68c.008.094.075.1.09.1c.037 0 .064-.024.083-.045a.746.744 0 0 1 .54-.225q.193 0 .402.09c.69.293.379 1.158.374 1.167c-.058.144-.061.207-.005.244l.027.013h.02c.03 0 .07-.014.134-.035c.093-.032.235-.08.367-.08a.944.942 0 0 1 .94.93a.936.934 0 0 1-.94.928m7.302-4.171c-1.138-.98-3.768-3.24-4.481-3.77c-.406-.302-.685-.462-.928-.533a1.559 1.554 0 0 0-.456-.07q-.274 0-.58.095c-.46.145-.918.505-1.362.854l-.023.018c-.414.324-.84.66-1.164.73a1.986 1.98 0 0 1-.43.049c-.362 0-.687-.104-.81-.258q-.03-.037.04-.125l.008-.008l1-1.067c.783-.774 1.525-1.506 3.23-1.545h.085c1.062 0 2.12.469 2.24.524a7 7 0 0 0 3.056.724c1.076 0 2.188-.263 3.354-.795a9.135 9.11 0 0 0-.405-.317c-1.025.44-2.003.66-2.946.66c-.962 0-1.925-.229-2.858-.68c-.05-.022-1.22-.567-2.44-.57q-.049 0-.096.002c-1.434.033-2.24.536-2.782.976c-.528.013-.982.138-1.388.25c-.361.1-.673.186-.979.185c-.125 0-.35-.01-.37-.012c-.35-.01-2.115-.437-3.518-.962q-.213.15-.415.31c1.466.593 3.25 1.053 3.812 1.089c.157.01.323.027.491.027c.372 0 .744-.103 1.104-.203c.213-.059.446-.123.692-.17l-.196.194l-1.017 1.087c-.08.08-.254.294-.14.557a.705.703 0 0 0 .268.292c.243.162.677.27 1.08.271q.23 0 .43-.044c.427-.095.874-.448 1.349-.82c.377-.296.913-.672 1.323-.782a1.494 1.49 0 0 1 .37-.05a.611.61 0 0 1 .095.005c.27.034.533.125 1.003.472c.835.62 4.531 3.815 4.566 3.846c.002.002.238.203.22.537c-.007.186-.11.352-.294.466a.902.9 0 0 1-.484.15a.804.802 0 0 1-.428-.124c-.014-.01-1.28-1.157-1.746-1.543c-.074-.06-.146-.115-.22-.115a.12.12 0 0 0-.096.045c-.073.09.01.212.105.294l1.48 1.47c.002 0 .184.17.204.395q.017.367-.35.606a.957.955 0 0 1-.526.171a.766.764 0 0 1-.42-.127l-.214-.206a21.035 20.978 0 0 0-1.08-1.009c-.072-.058-.148-.112-.221-.112a.13.13 0 0 0-.094.038c-.033.037-.056.103.028.212a.698.696 0 0 0 .075.083l1.078 1.198c.01.01.222.26.024.511l-.038.048a1.18 1.178 0 0 1-.1.096c-.184.15-.43.164-.527.164a.8.798 0 0 1-.147-.012q-.16-.027-.212-.089l-.013-.013c-.06-.06-.602-.609-1.054-.98c-.059-.05-.133-.11-.21-.11a.13.13 0 0 0-.096.042c-.09.096.044.24.1.293l.92 1.003a.2.2 0 0 1-.033.062c-.033.044-.144.155-.479.196a.91.907 0 0 1-.122.007c-.345 0-.712-.164-.902-.264a1.343 1.34 0 0 0 .13-.576a1.368 1.365 0 0 0-1.42-1.357c.024-.342-.025-.99-.697-1.274a1.455 1.452 0 0 0-.575-.125q-.22 0-.42.075a1.153 1.15 0 0 0-.671-.564a1.52 1.515 0 0 0-.494-.085q-.421 0-.767.242a1.168 1.165 0 0 0-.903-.43a1.173 1.17 0 0 0-.82.335c-.287-.217-1.425-.93-4.467-1.613a17.39 17.344 0 0 1-.692-.189a4.822 4.82 0 0 0-.077.494l.67.157c3.108.682 4.136 1.391 4.309 1.525a1.145 1.142 0 0 0-.09.442a1.16 1.158 0 0 0 1.378 1.132c.096.467.406.821.879 1.003a1.165 1.162 0 0 0 .415.08q.135 0 .266-.034c.086.22.282.493.722.668a1.233 1.23 0 0 0 .457.094q.183 0 .355-.063a1.373 1.37 0 0 0 1.269.841c.37.002.726-.147.985-.41c.221.121.688.341 1.163.341q.09.001.175-.01c.47-.059.689-.24.789-.382a.571.57 0 0 0 .048-.078c.11.032.234.058.373.058c.255 0 .501-.086.75-.265c.244-.174.418-.424.444-.637v-.01q.125.026.251.026c.265 0 .527-.082.773-.242c.48-.31.562-.715.554-.98a1.28 1.279 0 0 0 .978-.194a1.04 1.04 0 0 0 .502-.808a1.088 1.085 0 0 0-.16-.653c.804-.342 2.636-1.003 4.795-1.483a4.734 4.721 0 0 0-.067-.492a27.742 27.667 0 0 0-5.049 1.62zm5.123-.763c0 4.027-5.166 7.293-11.537 7.293S.465 15.572.465 11.545S5.63 4.252 12.004 4.252c6.371 0 11.537 3.265 11.537 7.293zm.46.004c0-4.272-5.374-7.755-12-7.755S.002 7.277.002 11.55L0 12.004c0 4.533 4.695 8.203 11.999 8.203c7.347 0 12-3.67 12-8.204z"></path></symbol>

<symbol viewBox="0 0 20 20" id="dashicons:rest-api"><path fill="currentColor" d="M16 13c-1.3 0-2.4.8-2.8 2H9c0-.7-.2-1.3-.5-1.8l7.1-7.3c.3 0 .6.1.9.1C17.9 6 19 4.9 19 3.5S17.9 1 16.5 1S14 2.1 14 3.5c0 .3.1.7.2 1l-7 7.2c-.6-.5-1.4-.7-2.2-.7V6.8C6.2 6.4 7 5.3 7 4c0-1.7-1.3-3-3-3S1 2.3 1 4c0 1.3.8 2.4 2 2.8v4.7c-1.2.7-2 2-2 3.4c0 2.2 1.8 4 4 4c1.5 0 2.8-.8 3.4-2h4.7c.4 1.1 1.5 2 2.8 2c1.6 0 3-1.3 3-3C19 14.3 17.6 13 16 13"></path></symbol>

<symbol viewBox="0 0 24 24" id="mdi:responsive"><path fill="currentColor" d="M4 6v10h5v-4a2 2 0 0 1 2-2h5a2 2 0 0 1 2 2v4h2V6zM0 20v-2h4a2 2 0 0 1-2-2V6a2 2 0 0 1 2-2h16a2 2 0 0 1 2 2v10a2 2 0 0 1-2 2h4v2h-6a2 2 0 0 1-2 2h-5a2 2 0 0 1-2-2zm11.5 0a.5.5 0 0 0-.5.5a.5.5 0 0 0 .5.5a.5.5 0 0 0 .5-.5a.5.5 0 0 0-.5-.5m4 0a.5.5 0 0 0-.5.5a.5.5 0 0 0 .5.5a.5.5 0 0 0 .5-.5a.5.5 0 0 0-.5-.5M13 20v1h1v-1zm-2-8v7h5v-7z"></path></symbol>

<symbol viewBox="0 0 24 24" id="streamline-ultimate:seo-search-graph-bold"><path fill="currentColor" d="m9.727 8.304l2.338 2.338a1.94 1.94 0 0 0 2.735 0l6.586-6.596a.25.25 0 0 1 .34 0l1.057 1.057c.089.09.212.14.34.136q.091.021.183 0a.485.485 0 0 0 .301-.475V.884a.485.485 0 0 0-.485-.485h-3.88a.485.485 0 0 0-.485.3a.47.47 0 0 0 .107.524l1.145 1.106a.233.233 0 0 1 0 .34l-2.91 2.91C14.487-.614 6.152-1.657 2.096 3.7A8.73 8.73 0 0 0 .327 9.187q.003.486.058.97a.97.97 0 0 0 .97.853h.116a.97.97 0 0 0 .854-1.076a7 7 0 0 1 0-.796C2.498 3.87 8.31.763 12.786 3.546a6.85 6.85 0 0 1 2.838 3.526L13.607 9.12a.26.26 0 0 1-.35 0L10.92 6.762a1.94 1.94 0 0 0-2.735 0L.619 14.318a.97.97 0 1 0 1.377 1.367l.563-.562a9.1 9.1 0 0 0 6.567 2.91a8.73 8.73 0 0 0 5.334-1.804a.25.25 0 0 1 .32 0l1.358 1.358a.24.24 0 0 1 .059.252a1.45 1.45 0 0 0 .34 1.513l3.763 3.773c1.004 1.105 2.828.708 3.283-.715a1.94 1.94 0 0 0-.548-2.03l-3.754-3.792a1.48 1.48 0 0 0-1.028-.427q-.25 0-.485.087a.24.24 0 0 1-.252-.058l-1.358-1.358a.243.243 0 0 1 0-.32a8.9 8.9 0 0 0 1.358-2.59a.97.97 0 1 0-1.843-.601a6.86 6.86 0 0 1-6.518 4.723a7.1 7.1 0 0 1-5.18-2.298l5.432-5.442a.243.243 0 0 1 .32 0"></path></symbol>

<symbol viewBox="0 0 24 24" id="bxs:data"><path fill="currentColor" d="M20 6c0-2.168-3.663-4-8-4S4 3.832 4 6v2c0 2.168 3.663 4 8 4s8-1.832 8-4zm-8 13c-4.337 0-8-1.832-8-4v3c0 2.168 3.663 4 8 4s8-1.832 8-4v-3c0 2.168-3.663 4-8 4"></path><path fill="currentColor" d="M20 10c0 2.168-3.663 4-8 4s-8-1.832-8-4v3c0 2.168 3.663 4 8 4s8-1.832 8-4z"></path></symbol>

<symbol id="material-icon-theme:sequelize" viewBox="0 0 24 24"><path fill="currentColor" d="M12.026 0L1.595 5.992v12.016L12.026 24l10.38-5.992V5.992zM12 3.484l7.43 4.227v8.578L12 20.516l-7.348-4.182l-.08-8.623zm.049.59q-1.465.845-2.928 1.692v.254l2.608 1.523v.482l.402-.232l.256.15v-.336c.884-.506 1.807-1.04 2.568-1.48c.004-.123.003-.253.004-.373zM8.335 6.14c-.97.553-1.931 1.122-2.893 1.691v3.402l2.893 1.67l.402-.232V9.754l2.49-1.44V7.83zm7.443.088l-2.892 1.67v.337l2.636 1.541v3.067l.256.148l2.893-1.67V7.918zM12.13 8.37l-2.893 1.672v3.424q1.447.833 2.893 1.67l2.893-1.672v-3.402zm-6.197 3.723l-.49.285v3.402l2.892 1.672l.402-.232v-2.918l.473-.274l-.473-.273v-.508l-.402.233c-.825-.478-1.69-.976-2.402-1.387m12.248.086l-2.403 1.388l-.255-.148v.334l-.493.285l.493.287v3.067l.255.148l2.893-1.672v-3.402zm-8.47 2.138q-.236.138-.474.274v3.424l2.893 1.67l2.893-1.67v-3.403l-.49-.287l-2.403 1.389z"/></symbol>

<symbol viewBox="0 0 24 24" id="simple-icons:mongoose"><path fill="currentColor" d="M14.014 7.37a9 9 0 0 0-.808.025c-.218.017-.434.072-.65.11c.229.118.456.213.68.315q.339.155.629.387c-.253-.097-.499-.208-.752-.298a8 8 0 0 0-1.624-.421c-.273-.037-.546-.073-.819.005c-.276.078-.354.18-.38.458c-.04.46.098.887.281 1.298a4.4 4.4 0 0 0 1.185 1.573a4.6 4.6 0 0 0 1.305.787l.411.155l-.009.032c-.263-.072-.532-.126-.787-.22a4.1 4.1 0 0 1-1.222-.73a4.2 4.2 0 0 1-1.007-1.22a3.4 3.4 0 0 1-.43-1.609l-.012.005C4.891 7.488.402 11.595.035 11.94l-.034.014q-.002.007.003.016L0 11.974l.005-.002l.013.024c.087-.019.173-.042.26-.054l.069-.01c.324-.115.655-.205.997-.253c.484-.069.985-.159 1.48-.156c.468.002.943.074 1.402.153q.193.034.38.087c.335.075.65.21.933.391l.06.03c.403.19.758.47 1.038.811c.052.057.141.116.187.178c.096.114.142.236.303.363v-1.737h2.01l.939 1.733l.942-1.733h2.07v3.357l.343-.226s.375-1 2.116-1.14l1.996-.064c-.308-.637-.307-.637-.159-.83c.147-.19 1.28-.314 1.48-.433l2.912-.588c.007-.022.015.012.03.007c.072-.022.147-.037.25-.061l.66-.16c.042-.025.093-.034.14-.05c.308-.107.577-.245.726-.573c.145-.319.339-.616.41-.967c.022-.111.003-.208-.078-.288a.73.73 0 0 0-.35-.171c-.421-.173-.84-.35-1.264-.513c-.261-.101-.529-.185-.795-.27a31 31 0 0 0-.794-.243q-.366-.106-.736-.205c-.24-.066-.48-.133-.72-.192c-.282-.07-.565-.13-.847-.195c-.215-.05-.428-.102-.644-.146q-.351-.07-.706-.13c-.302-.053-.602-.112-.905-.153c-.366-.05-.734-.082-1.101-.125q-.518-.061-1.038-.07m-3.303.767a.2.2 0 0 1 .056.007c.42.13.83.277 1.216.491c.365.203.695.45.979.756c.012.013.02.028.036.05l-.645-.293l-.021.026l.37.551l-.022.022a2 2 0 0 0-.665-.322l-.02.02l.633.74l-.416-.136l-.017.02c.163.27.376.505.58.775c-.354-.2-.665-.42-.956-.669a4.5 4.5 0 0 1-1.01-1.185c-.107-.19-.201-.385-.222-.606a.5.5 0 0 1 .011-.15a.12.12 0 0 1 .113-.097m5.424.668c.154.002.311-.006.464.015c.278.037.555.092.832.14c.158.027.317.052.474.086q.446.098.89.2q.294.068.587.14l-.329.161c-.365.027-.731.055-1.097.057a3.3 3.3 0 0 1-.675-.074c-.28-.058-.514-.196-.652-.466c-.02-.04-.09-.063-.14-.078c-.18-.054-.362-.1-.544-.168c.063-.005.126-.014.19-.013m3.223 2.635l.005.02q-.12.031-.239.067c-.455.14-.916.266-1.363.428c-.28.101-.544.25-.81.388c-.233.119-.315.322-.287.575q.03.243.055.488a1.8 1.8 0 0 1-.288-.701c-.035-.169.058-.273.18-.365c.238-.178.496-.318.777-.41c.35-.117.702-.233 1.059-.325c.251-.065.513-.09.77-.133q.071-.014.141-.032M9.141 13.955v2.676h1.869l.064-.066v-2.61l-.97 1.495z"></path></symbol>

<symbol  fill="none" stroke="currentColor" viewBox="0 0 24 24" id="external-link">
    <path stroke-linecap="round" stroke-linejoin="round" stroke-width="2" d="M10 6H6a2 2 0 00-2 2v10a2 2 0 002 2h10a2 2 0 002-2v-4M14 4h6m0 0v6m0-6L10 14"/>
</symbol>

<symbol fill="none" stroke="currentColor" viewBox="0 0 24 24" id="sendIcon"><path fill="none" stroke="currentColor" stroke-linecap="round" stroke-linejoin="round" stroke-width="2" d="M14.536 21.686a.5.5 0 0 0 .937-.024l6.5-19a.496.496 0 0 0-.635-.635l-19 6.5a.5.5 0 0 0-.024.937l7.93 3.18a2 2 0 0 1 1.112 1.11zm7.318-19.539l-10.94 10.939"/></symbol>

<symbol fill="none" stroke="currentColor" viewBox="0 0 24 24" id="contactIcon"><path fill="currentColor" d="m20.487 17.14l-4.065-3.696a1 1 0 0 0-1.391.043l-2.393 2.461c-.576-.11-1.734-.471-2.926-1.66c-1.192-1.193-1.553-2.354-1.66-2.926l2.459-2.394a1 1 0 0 0 .043-1.391L6.859 3.513a1 1 0 0 0-1.391-.087l-2.17 1.861a1 1 0 0 0-.29.649c-.015.25-.301 6.172 4.291 10.766C11.305 20.707 16.323 21 17.705 21c.202 0 .326-.006.359-.008a1 1 0 0 0 .648-.291l1.86-2.171a.997.997 0 0 0-.085-1.39"/></symbol>

<symbol fill="none" stroke="currentColor" viewBox="0 0 24 24" id="mailIcon"><path stroke-width="1" fill="currentColor" fill-rule="evenodd" d="M5 20a3 3 0 0 1-3-3V7a3 3 0 0 1 3-3h14a3 3 0 0 1 3 3v10a3 3 0 0 1-3 3zM7.625 8.22a1 1 0 1 0-1.25 1.56l3.75 3.001a3 3 0 0 0 3.75 0l3.75-3a1 1 0 1 0-1.25-1.562l-3.75 3a1 1 0 0 1-1.25 0z" clip-rule="evenodd"/></symbol>

<symbol viewBox="0 0 24 24" id="lucide:instagram"><g fill="none" stroke="currentColor" stroke-linecap="round" stroke-linejoin="round" stroke-width="2"><rect width="20" height="20" x="2" y="2" rx="5" ry="5"/><path d="M16 11.37A4 4 0 1 1 12.63 8A4 4 0 0 1 16 11.37m1.5-4.87h.01"/></g></symbol>

<symbol viewBox="0 0 24 24" id="meteor-icons:linkedin"><g fill="none" stroke="currentColor" stroke-linecap="round" stroke-linejoin="round" stroke-width="2"><circle cx="4" cy="4" r="2"/><path d="M2 9h4v12H2Zm20 12h-4v-7a2 2 0 0 0-4 0v7h-4v-7a6 6 0 0 1 12 0Z"/></g></symbol>

<symbol viewBox="0 0 24 24" id="locationIcon"><path fill="currentColor" d="M17.657 5.304c-3.124-3.073-8.189-3.073-11.313 0a7.78 7.78 0 0 0 0 11.13L12 21.999l5.657-5.565a7.78 7.78 0 0 0 0-11.13M12 13.499c-.668 0-1.295-.26-1.768-.732a2.503 2.503 0 0 1 0-3.536c.472-.472 1.1-.732 1.768-.732s1.296.26 1.768.732a2.503 2.503 0 0 1 0 3.536c-.472.472-1.1.732-1.768.732"/></symbol>

<symbol id="whatsappIcon" viewBox="0 0 24 24"><g fill="none" stroke="currentColor" stroke-linecap="round" stroke-linejoin="round" stroke-width="2"><circle cx="9" cy="9" r="1"/><circle cx="15" cy="15" r="1"/><path d="M8 9a7 7 0 0 0 7 7m-9 5.2A11 11 0 1 0 2.8 18L2 22Z"/></g></symbol>

<symbol viewBox="0 0 32 32" id="carbon:emailFooter"><path fill="currentColor" d="M28 6H4a2 2 0 0 0-2 2v16a2 2 0 0 0 2 2h24a2 2 0 0 0 2-2V8a2 2 0 0 0-2-2m-2.2 2L16 14.78L6.2 8ZM4 24V8.91l11.43 7.91a1 1 0 0 0 1.14 0L28 8.91V24Z"/></symbol>

<symbol viewBox="0 0 24 24" id="tabler:phoneFooter"><path fill="none" stroke="currentColor" stroke-linecap="round" stroke-linejoin="round" stroke-width="2" d="M5 4h4l2 5l-2.5 1.5a11 11 0 0 0 5 5L15 13l5 2v4a2 2 0 0 1-2 2A16 16 0 0 1 3 6a2 2 0 0 1 2-2"/></symbol>

<symbol viewBox="0 0 24 24" id="lucide:folder"><path fill="none" stroke="currentColor" stroke-linecap="round" stroke-linejoin="round" stroke-width="2" d="M20 20a2 2 0 0 0 2-2V8a2 2 0 0 0-2-2h-7.9a2 2 0 0 1-1.69-.9L9.6 3.9A2 2 0 0 0 7.93 3H4a2 2 0 0 0-2 2v13a2 2 0 0 0 2 2Z"/></symbol>

<symbol viewBox="0 0 24 24" id="meteor-icons:user"><g fill="none" stroke="currentColor" stroke-linecap="round" stroke-linejoin="round" stroke-width="2"><circle cx="12" cy="6" r="4"/><path d="M21 22a1 1 0 0 0-18 0Z"/></g></symbol>

<symbol viewBox="0 0 24 24" id="mdi:message-outline"><path fill="currentColor" d="M20 2H4c-1.1 0-2 .9-2 2v18l4-4h14c1.1 0 2-.9 2-2V4c0-1.1-.9-2-2-2m0 14H5.2L4 17.2V4h16z"/></symbol>

<symbol xmlns="http://www.w3.org/2000/svg" viewBox="0 0 256 256" id="ph:briefcase"><path fill="currentColor" d="M216 56h-40v-8a24 24 0 0 0-24-24h-48a24 24 0 0 0-24 24v8H40a16 16 0 0 0-16 16v128a16 16 0 0 0 16 16h176a16 16 0 0 0 16-16V72a16 16 0 0 0-16-16M96 48a8 8 0 0 1 8-8h48a8 8 0 0 1 8 8v8H96Zm120 24v41.61A184 184 0 0 1 128 136a184.1 184.1 0 0 1-88-22.38V72Zm0 128H40v-68.36A200.2 200.2 0 0 0 128 152a200.25 200.25 0 0 0 88-20.37zm-112-88a8 8 0 0 1 8-8h32a8 8 0 0 1 0 16h-32a8 8 0 0 1-8-8"/></symbol>
</defs>
</svg>